# xmcd
#
# Track frame offsets:
#	150
#	17182
#	35787
#	52394
#	72104
#	92591
#	106969
#	126905
#	142603
#	160215
#	177107
#
# Disc length: 2612 seconds
#
# Revision: 1
# Processed by: cddbd v1.5.2PL0 Copyright (c) Steve Scherf et al.
# Submitted via: audiograbber 1.83.01
#
DISCID=940a320b
DTITLE=Diversen - 125 Jaar Noordzeekanaal
DYEAR=2001
DGENRE=Pop
TTITLE0=Diversen - Aan het Noordzeekanaal
TTITLE1=Diversen - Land in twee
TTITLE2=Diversen - Sail
TTITLE3=Diversen - De jongens van Wijsmuller
TTITLE4=Diversen - Jan met de schop
TTITLE5=Diversen - Breesaap 1848
TTITLE6=Diversen - De Kanaaloeverture
TTITLE7=Diversen - Henry Lee and Son
TTITLE8=Diversen - Je staat bijna nooit stil
TTITLE9=Diversen - De sluizen van IJmuiden
TTITLE10=Diversen - De kanaalgravers
EXTD=
EXTT0=
EXTT1=
EXTT2=
EXTT3=
EXTT4=
EXTT5=
EXTT6=
EXTT7=
EXTT8=
EXTT9=
EXTT10=
PLAYORDER=
